<svg xmlns="http://www.w3.org/2000/svg" xmlns:xlink="http://www.w3.org/1999/xlink" version="1.1" x="0px" y="0px" viewBox="0 0 100 100" enable-background="new 0 0 100 100" xml:space="preserve"><g><polygon points="95.757,98.874 95.757,88.427 25.278,88.427 25.278,43.408 95.757,11.493 95.757,0.732 3.684,42.277 3.684,53.142    14.831,48.066 14.831,98.874  "></polygon><g><path d="M39.115,68.479c1.83,0,3.613-0.94,4.609-2.633l10.974-18.825c1.496-2.543,0.647-5.816-1.894-7.313    c-2.545-1.495-5.818-0.648-7.314,1.894L34.516,60.427c-1.496,2.544-0.649,5.817,1.894,7.313    C37.262,68.241,38.194,68.479,39.115,68.479L39.115,68.479z"></path><circle cx="71.67" cy="40.625" r="6.561"></circle><path d="M84.805,79.09l-9.697-13.206c-0.068-0.092-0.139-0.179-0.212-0.263c-0.028-0.032-0.059-0.062-0.087-0.092    c-0.047-0.051-0.094-0.102-0.143-0.148c-0.036-0.035-0.074-0.066-0.113-0.1c-0.043-0.039-0.088-0.079-0.135-0.117    c-0.041-0.034-0.085-0.064-0.128-0.097c-0.044-0.032-0.088-0.064-0.133-0.096c-0.046-0.031-0.095-0.061-0.143-0.09    c-0.044-0.026-0.088-0.054-0.133-0.079c-0.05-0.028-0.101-0.055-0.151-0.079c-0.046-0.023-0.09-0.046-0.136-0.066    c-0.052-0.024-0.104-0.046-0.159-0.066c-0.045-0.019-0.092-0.037-0.139-0.055c-0.055-0.02-0.109-0.036-0.164-0.054    c-0.048-0.016-0.096-0.028-0.143-0.041c-0.056-0.016-0.111-0.028-0.169-0.041c-0.047-0.011-0.096-0.021-0.145-0.029    c-0.057-0.011-0.114-0.019-0.17-0.026c-0.049-0.007-0.099-0.013-0.147-0.018c-0.059-0.005-0.116-0.009-0.175-0.013    c-0.049-0.002-0.099-0.003-0.147-0.005c-0.058,0-0.117,0-0.175,0.003c-0.05,0.001-0.099,0.004-0.148,0.009    c-0.06,0.003-0.117,0.009-0.177,0.016c-0.048,0.006-0.098,0.013-0.146,0.021c-0.059,0.01-0.117,0.02-0.176,0.032    c-0.049,0.009-0.099,0.021-0.147,0.034c-0.058,0.014-0.115,0.029-0.173,0.046c-0.05,0.016-0.1,0.032-0.149,0.05    c-0.055,0.019-0.109,0.037-0.163,0.058c-0.016,0.006-0.031,0.011-0.046,0.017l-10.618,4.33c0.71-1.577,7.4-12.77,7.4-12.77    l7.881,8.101c0.647,0.665,1.506,0.999,2.366,0.999c0.83,0,1.661-0.312,2.302-0.935c1.308-1.272,1.336-3.362,0.064-4.669    c0,0-11.521-11.834-11.571-11.88c-1.599-1.458-3.435-1.394-5.446-0.781c-1.046,0.319-7.398,2.841-12.057,10.483    c-5.184,8.507-6.047,15.939-6.034,17.835c0.01,1.5,0.283,4.864,2.333,6.194c1.744,1.131,3.601,1.183,4.97,0.57l18.657-9.026    l7.797,10.616c0.757,1.03,1.928,1.576,3.115,1.576c0.794,0,1.594-0.244,2.283-0.75C85.698,83.227,86.067,80.811,84.805,79.09z"></path></g></g></svg>