<svg xmlns="http://www.w3.org/2000/svg" xmlns:xlink="http://www.w3.org/1999/xlink" version="1.1" x="0px" y="0px" viewBox="0 0 107.656 184.834" enable-background="new 0 0 107.656 184.834" xml:space="preserve"><path d="M89.044,42.528l6.006,4.414l5.98-8.142L54.497,4.605L7.964,38.8l5.98,8.142l6.085-4.473l-0.098,42.172h-8.35v10.103h8.354  v83.734h10v-13.172l24.502-29.483l24.502,29.484v13.171H88.94V94.743h8.472V84.641h-8.468L89.044,42.528z M54.497,17.143  l21.807,16.024H32.691L54.497,17.143z M29.935,149.661v-43.322L47.936,128L29.935,149.661z M33.3,94.743h42.274l-21.137,25.435  L33.3,94.743z M78.939,149.66L60.938,128l18.001-21.66V149.66z M78.841,84.641H30.033l0.096-41.474h48.81L78.841,84.641z"></path></svg>